HIERARCHY
ROOT hip
{
  OFFSET 0 0 0
  CHANNELS 6 Xposition Yposition Zposition Zrotation Yrotation Xrotation
  JOINT abdomen
  {
    OFFSET 0 20.6881 -0.73152
    CHANNELS 3 Zrotation Xrotation Yrotation
    JOINT chest
    {
      OFFSET 0 11.7043 -0.48768
      CHANNELS 3 Zrotation Xrotation Yrotation
      JOINT neck
      {
        OFFSET 0 22.1894 -2.19456
        CHANNELS 3 Zrotation Xrotation Yrotation
        JOINT head
        {
          OFFSET -0.24384 7.07133 1.2192
          CHANNELS 3 Zrotation Xrotation Yrotation
          JOINT leftEye
          {
            OFFSET 4.14528 8.04674 8.04672
            CHANNELS 3 Zrotation Xrotation Yrotation
            End Site
            {
              OFFSET 1 0 0
            }
          }
          JOINT rightEye
          {
            OFFSET -3.6576 8.04674 8.04672
            CHANNELS 3 Zrotation Xrotation Yrotation
            End Site
            {
              OFFSET 1 0 0
            }
          }
        }
      }
      JOINT rCollar
      {
        OFFSET -2.68224 19.2634 -4.8768
        CHANNELS 3 Zrotation Xrotation Yrotation
        JOINT rShldr
        {
          OFFSET -8.77824 -1.95073 1.46304
          CHANNELS 3 Zrotation Xrotation Yrotation
          JOINT rForeArm
          {
            OFFSET -28.1742 -1.7115 0.48768
            CHANNELS 3 Zrotation Xrotation Yrotation
            JOINT rHand
            {
              OFFSET -22.5879 0.773209 7.07136
              CHANNELS 3 Zrotation Xrotation Yrotation
              JOINT rThumb1
              {
                OFFSET -1.2192 -0.487915 3.41376
                CHANNELS 3 Zrotation Xrotation Yrotation
                JOINT rThumb2
                {
                  OFFSET -3.37035 -0.52449 3.41376
                  CHANNELS 3 Zrotation Xrotation Yrotation
                  End Site
                  {
                    OFFSET -1.78271 -1.18214 1.43049
                  }
                }
              }
              JOINT rIndex1
              {
                OFFSET -7.75947 0.938293 5.60832
                CHANNELS 3 Zrotation Xrotation Yrotation
                JOINT rIndex2
                {
                  OFFSET -2.54057 -0.884171 1.56538
                  CHANNELS 3 Zrotation Xrotation Yrotation
                  End Site
                  {
                    OFFSET -1.62519 -0.234802 1.16502
                  }
                }
              }
              JOINT rMid1
              {
                OFFSET -8.24714 1.18213 3.41376
                CHANNELS 3 Zrotation Xrotation Yrotation
                JOINT rMid2
                {
                  OFFSET -3.10165 -0.590103 1.0647
                  CHANNELS 3 Zrotation Xrotation Yrotation
                  End Site
                  {
                    OFFSET -2.48547 -0.328903 0.83742
                  }
                }
              }
              JOINT rRing1
              {
                OFFSET -8.82822 0.546677 1.51678
                CHANNELS 3 Zrotation Xrotation Yrotation
                JOINT rRing2
                {
                  OFFSET -2.60934 -0.819778 -0.0198488
                  CHANNELS 3 Zrotation Xrotation Yrotation
                  End Site
                  {
                    OFFSET -2.33842 -0.294052 0.168128
                  }
                }
              }
              JOINT rPinky1
              {
                OFFSET -8.27202 -0.0477905 -0.4584
                CHANNELS 3 Zrotation Xrotation Yrotation
                JOINT rPinky2
                {
                  OFFSET -1.82734 -0.647385 -0.700984
                  CHANNELS 3 Zrotation Xrotation Yrotation
                  End Site
                  {
                    OFFSET -1.69225 -0.51767 -0.607171
                  }
                }
              }
            }
          }
        }
      }
      JOINT lCollar
      {
        OFFSET 2.68224 19.2634 -4.8768
        CHANNELS 3 Zrotation Xrotation Yrotation
        JOINT lShldr
        {
          OFFSET 8.77824 -1.95073 1.46304
          CHANNELS 3 Zrotation Xrotation Yrotation
          JOINT lForeArm
          {
            OFFSET 28.1742 -1.7115 0.48768
            CHANNELS 3 Zrotation Xrotation Yrotation
            JOINT lHand
            {
              OFFSET 22.5879 0.773209 7.07136
              CHANNELS 3 Zrotation Xrotation Yrotation
              JOINT lThumb1
              {
                OFFSET 1.2192 -0.487915 3.41376
                CHANNELS 3 Zrotation Xrotation Yrotation
                JOINT lThumb2
                {
                  OFFSET 3.37035 -0.52449 3.41376
                  CHANNELS 3 Zrotation Xrotation Yrotation
                  End Site
                  {
                    OFFSET 1.78271 -1.18214 1.43049
                  }
                }
              }
              JOINT lIndex1
              {
                OFFSET 7.75947 0.938293 5.60832
                CHANNELS 3 Zrotation Xrotation Yrotation
                JOINT lIndex2
                {
                  OFFSET 2.54057 -0.884171 1.56538
                  CHANNELS 3 Zrotation Xrotation Yrotation
                  End Site
                  {
                    OFFSET 1.62519 -0.234802 1.16502
                  }
                }
              }
              JOINT lMid1
              {
                OFFSET 8.24714 1.18213 3.41376
                CHANNELS 3 Zrotation Xrotation Yrotation
                JOINT lMid2
                {
                  OFFSET 3.10165 -0.590103 1.0647
                  CHANNELS 3 Zrotation Xrotation Yrotation
                  End Site
                  {
                    OFFSET 2.48547 -0.328903 0.83742
                  }
                }
              }
              JOINT lRing1
              {
                OFFSET 8.82822 0.546677 1.51678
                CHANNELS 3 Zrotation Xrotation Yrotation
                JOINT lRing2
                {
                  OFFSET 2.60934 -0.819778 -0.0198488
                  CHANNELS 3 Zrotation Xrotation Yrotation
                  End Site
                  {
                    OFFSET 2.33842 -0.294052 0.168128
                  }
                }
              }
              JOINT lPinky1
              {
                OFFSET 8.27202 -0.0477905 -0.4584
                CHANNELS 3 Zrotation Xrotation Yrotation
                JOINT lPinky2
                {
                  OFFSET 1.82734 -0.647385 -0.700984
                  CHANNELS 3 Zrotation Xrotation Yrotation
                  End Site
                  {
                    OFFSET 1.69225 -0.51767 -0.607171
                  }
                }
              }
            }
          }
        }
      }
    }
  }
  JOINT rButtock
  {
    OFFSET -8.77824 4.35084 1.2192
    CHANNELS 3 Zrotation Xrotation Yrotation
    JOINT rThigh
    {
      OFFSET 0 -1.70687 -2.19456
      CHANNELS 3 Zrotation Xrotation Yrotation
      JOINT rShin
      {
        OFFSET 0 -36.8199 0.73152
        CHANNELS 3 Zrotation Xrotation Yrotation
        JOINT rFoot
        {
          OFFSET 0.73152 -45.1104 -5.12064
          CHANNELS 3 Zrotation Xrotation Yrotation
          End Site
          {
            OFFSET -1.1221 -3.69964 12.103
          }
        }
      }
    }
  }
  JOINT lButtock
  {
    OFFSET 8.77824 4.35084 1.2192
    CHANNELS 3 Zrotation Xrotation Yrotation
    JOINT lThigh
    {
      OFFSET 0 -1.70687 -2.19456
      CHANNELS 3 Zrotation Xrotation Yrotation
      JOINT lShin
      {
        OFFSET 0 -36.8199 0.73152
        CHANNELS 3 Zrotation Xrotation Yrotation
        JOINT lFoot
        {
          OFFSET -0.73152 -45.1104 -5.12064
          CHANNELS 3 Zrotation Xrotation Yrotation
          End Site
          {
            OFFSET 1.1221 -3.69964 12.103
          }
        }
      }
    }
  }
}
MOTION
Frames:	4
Frame Time:	0.03333
-6.912171747535467 61.97708249092102 6.432508572470397 -6.446845229732609 4.851132039604624 2.5896179855993213 -2.4164054554648557 14.790433138204111 3.9778483848757125 2.500239410781004 -9.862851218106357 1.1777553452380978 -4.851862442958993 15.399226681947566 -3.2544989083728044 8.462893810911877 -24.9912421164427 -4.4011783869912255 0.022294351100729862 0.011008237229650707 0.05072824185250783 0.06516704831450322 -0.06663767342017159 -0.05440920688704224 0.007438449532114121 -0.020039241416288503 -0.045386500313028946 48.61390215341702 30.99881354810287 16.239252864947215 -24.06324480448058 -29.812860481756875 66.88026295647023 -4.890495273565055 -11.660621040677183 -5.484299967174915 -0.014650969213088914 0.08131983205177513 -0.07311461374404775 0.06460787993706131 -0.04820555417124593 -0.09488093252499744 0.008766587820351035 -0.09367166887678784 -0.07784698768372778 7.754651005305746 5.453894099424134 0.34656924129344185 -0.0794351000472483 0.052032861344833155 0.04781696043017584 2.90912228214147 0.9183276850880885 0.13279904786744057 0.0382789947905431 0.01058980810170809 -0.017359347659830573 10.307522146283576 0.7201762133032023 0.018172572060465176 0.032247204041694594 0.068177134026069 -0.06417026758250448 2.12326077992049 -0.8362755553716674 -0.16512171749533588 -0.023326696841180265 0.015981522079919132 -0.034918781842734836 -57.976899637494334 31.56197630554876 -26.695668012495194 23.197233166783615 -28.07924918738092 -63.52258294162698 5.115846693059047 -13.78741302839857 4.077989203391854 -0.09278705265756541 -0.0063701118963889235 0.033951269538546665 0.006137565299491146 0.01855965168733449 -0.034714169652325357 0.07964412117812787 0.001475891154838024 -0.04054491004769483 -7.756035826159966 5.463374828878935 -0.3617249508140241 0.032244896184807074 0.03713536499138909 0.017283900416423047 -2.905891175777231 1.0353930720372873 -0.10923542883942548 0.07592418938077002 0.029833305799263663 -0.059693932355207376 -10.354884385535737 0.7535578023762876 -0.08028604556829667 0.04280762365367312 0.01712488507480869 -0.020489180127863094 -2.2355774778492377 -0.7288743524895077 0.09500467634285104 0.049342353781229926 -0.02033790210991789 -0.008313087271845989 -32.49128159873694 -36.308472835276554 -28.316232845918268 -5.526755569282068 62.85891395054435 6.599400493052605 -4.5451024256344414 -10.269662407714195 -10.492919947340756 -0.0005150923129541647 0.11877410818046565 0.0011338114022221167 38.437507686366644 -33.85461809292275 31.294997871271303 5.3503748985897746 63.1020686849968 -6.535468641760817 5.053289844224547 -10.08263048389809 13.940045558233551
-6.9183542393147945 62.01091408729553 6.512892758473754 -6.440040653771983 4.897517561805474 2.5912580847737705 -2.4402387602433806 14.79676984620659 3.981842337992877 2.515606055753063 -9.86148859536694 1.1957302686994558 -4.8479316690916505 15.415011249119464 -3.254356968504115 8.472655005009472 -25.006558815656454 -4.425441353357226 0.0038308556703044562 0.010164922310565695 0.04738358359331721 0.06370133240730079 -0.054375349425883075 -0.055194785363299484 -0.008478772720071689 -0.019767741396780496 -0.04048519925331011 48.64919374085848 30.99819883107757 16.28813140619512 -24.097139618236767 -29.84420080476348 66.96380983039782 -4.891582127416733 -11.650493577685346 -5.481963188705125 -0.01515149401320391 0.07147915696379993 -0.06112250910879786 0.0595977227374454 -0.04918707369931792 -0.10667965742937134 0.020979979912538756 -0.08595846431313937 -0.07234548375069406 7.760367873641046 5.470094881248581 0.34607976218987524 -0.08136740325212721 0.052675219291931696 0.05298453214581939 2.914972766052409 0.9196008750380611 0.142714561551595 0.03894894029858615 0.013642075567483983 -0.01983497106884285 10.323778850281851 0.7260300055870206 0.027526943015620763 0.028541719695256897 0.05338230395358669 -0.06697512745385253 2.1378961677645347 -0.8237079005771382 -0.16946881273693165 -0.024153576617574935 0.011109622850143084 -0.01887066541840808 -58.06481100230157 31.618953743605008 -26.724211373036674 23.234158876983994 -28.106598972364942 -63.59623970163639 5.1063578527546065 -13.82253044601619 4.100106209698001 -0.08236407726242016 -0.019646185373895425 0.00793113028685418 0.0036648767373878574 0.006295620145753472 -0.024481745862852893 0.05467769868846853 0.005278172088419497 -0.035495746064615794 -7.778857195724271 5.473246586663719 -0.36569094284427434 0.015759167405923483 0.031040861900180763 0.01963690058549244 -2.9109662197739623 1.036113016664489 -0.11067883991011959 0.06644543427752614 0.02402817861328173 -0.048505442164491805 -10.361451612422703 0.750412820428614 -0.06750622802267392 0.04121221419351979 0.017890399870379024 -0.013854718566253522 -2.2332688739097732 -0.736926078303895 0.11240975925618892 0.03743327863307801 -0.013982144282956572 -0.015207629630444953 -32.52252629909516 -36.36007149936142 -28.35992556603884 -5.529687001096473 62.931143201017235 6.59233636990352 -4.568059118321678 -10.278399927209934 -10.489465579168021 -0.01155924139660033 0.10607550585294256 -0.0007678626730975273 38.45716497079794 -33.87967805698753 31.31250023101946 5.3512679458237535 63.16041216088705 -6.5349871134243305 5.050549230820079 -10.10279917874349 13.971338069915966
-6.916527543216944 62.04407811164856 6.600385729689151 -6.443490753076486 4.898389264698296 2.581353883590429 -2.4491256901272136 14.809723299967521 3.9861359656598765 2.511526725271273 -9.871524704578627 1.193793910069757 -4.853258362870614 15.428304504791603 -3.2589216693037995 8.478188312010829 -25.033838591201484 -4.41720414521819 0.004178074740064402 -0.0011064906455420657 0.053400446643569535 0.06540738559592305 -0.06267541664962373 -0.04731530838204353 -0.021927682000091247 -0.028964591114202666 -0.048931155048854 48.68031891290622 31.02047207796098 16.302129878899063 -24.11033554371323 -29.86652869316025 66.99241466264183 -4.903669427813539 -11.657621733857901 -5.482831476503362 -0.016710698134670885 0.07043531195955158 -0.07819552743459676 0.06354973422423825 -0.05420294051019314 -0.09346676320168745 0.018663158401729274 -0.1028386365165912 -0.07467564547472623 7.7629283408061545 5.465288989393831 0.35252489944542853 -0.0761466841270045 0.03795658851737734 0.05122116940119251 2.917620745016259 0.9230804295333596 0.13994566689509533 0.03272573083020539 0.017608441123704435 -0.015285051225409435 10.33298765283032 0.7265695905314515 0.025749493005830727 0.030847175344400655 0.0489334495655283 -0.06918522725888057 2.131617516370001 -0.8192898354011978 -0.17675779852009885 -0.025984280758549916 0.009670160482562896 -0.022250808644771032 -58.09201564576573 31.62457498929193 -26.738653808036666 23.253560029321417 -28.12207276592961 -63.628013741655295 5.128006564215785 -13.825791861344872 4.093537275263742 -0.08874656887667974 -0.013696183472315179 0.01466180146622573 0.006304851573303567 0.002706782623734897 -0.034883857164517855 0.06872110123054366 -0.0007414123653302562 -0.01798511538426006 -7.7857445877285825 5.469806732642971 -0.36998232935545217 0.027373690646118602 0.02325850167118592 0.016134827810274185 -2.9107901289594227 1.035886980091644 -0.10430691374473239 0.07044202875690919 0.013737164607335255 -0.04613590013102629 -10.367364848696642 0.7619988489733656 -0.053902198743301016 0.04004798710514996 0.02470543455817081 -0.022965657310521623 -2.229112490356409 -0.7361444485307517 0.10853789577043793 0.04013216385058508 -0.016287760014659 -0.015588679480937617 -32.528509544808095 -36.38672631259739 -28.374480699160134 -5.531841498892789 62.96771203383348 6.579113123670375 -4.577072406705155 -10.28405617761635 -10.510980675053561 -0.0058999494215687485 0.10966690469589989 -0.008331229961828834 38.47899084029071 -33.89374141648859 31.34479336541528 5.357859505259639 63.19560129549096 -6.538543080660968 5.058544394130402 -10.094501352675572 13.970233286817715
-6.905238609761 62.071675062179565 6.68376840185374 -6.453876482596313 4.866780429879947 2.571190135218627 -2.4414483440567074 14.823914725515515 3.9890375153966624 2.4986174542965376 -9.88524484707389 1.1792234090228273 -4.863423391902885 15.432899514555729 -3.263886576500164 8.47855031203684 -25.059444970399863 -4.388683409678333 0.01727256123518377 -0.010893724839347212 0.0627118087512952 0.07077121852849869 -0.08070060603440472 -0.03909816392369506 -0.027436229565706533 -0.04159008907326545 -0.060953675370251606 48.699067782177906 31.053356023720006 16.285693028661427 -24.10404493948765 -29.874506354110828 66.97609734071467 -4.918624980774928 -11.678084980611258 -5.487118273981192 -0.01870511337231461 0.07444143135117562 -0.1069854151164352 0.07196666171580958 -0.05926768586231627 -0.06984348674014054 0.0059179186887797 -0.1289494892181979 -0.0804466217148581 7.76296590684659 5.449571016566339 0.36040677766506457 -0.06681419112153411 0.021320595576753476 0.04467368602979482 2.9187453783517836 0.9237064590594735 0.127912260959708 0.025554459088515127 0.019505099278852352 -0.007246398819980445 10.33326342171806 0.7257135757293786 0.018276305558484744 0.03727865222161391 0.05446120703818425 -0.06845791883397999 2.1136011848867997 -0.8231590308443042 -0.1824586052386794 -0.0276193640128275 0.012926239725954913 -0.037946423274901664 -58.06483149286908 31.58932096789091 -26.7406960345985 23.25273699152643 -28.122291331983046 -63.62317113753375 5.160570771744291 -13.806371925987232 4.068461089499687 -0.10414181526588848 0.0037407558701984677 0.04579940659269738 0.011160315660389272 0.005234699668580085 -0.05552901106538054 0.10385866257013046 -0.007473257483465402 -0.002665427962744585 -7.776420525737869 5.458611625706498 -0.3734940070841908 0.05641074579854687 0.019278742540889897 0.011354175638941274 -2.9082800344394433 1.03806474321982 -0.09498946849977717 0.08427744403462949 0.004446132984560956 -0.050851291979273835 -10.372528471709172 0.7796846633337615 -0.049097267383902826 0.034828308516658614 0.034158309647762675 -0.03931830412229575 -2.2270173298285076 -0.7316104835823325 0.09586901543797499 0.051110839167734325 -0.027099736027377624 -0.012123212250802397 -32.51813107236426 -36.38392935013227 -28.362466396410085 -5.530757633248872 62.968292599912935 6.569971769239959 -4.572208031355637 -10.28490568239437 -10.541523573474565 0.008733890957742243 0.12200350699741229 -0.016543465221711354 38.50015076633942 -33.897579982802135 31.37661521675837 5.365345819476796 63.204876692383834 -6.543459963089731 5.068723937314659 -10.070069766014436 13.947545105942226
